<svg xmlns="http://www.w3.org/2000/svg" viewBox="0 0 120 120" width="120" height="120">
  <defs>
    <linearGradient id="flameGrad" x1="0%" y1="100%" x2="0%" y2="0%">
      <stop offset="0%" stop-color="#ff2a00"/>
      <stop offset="40%" stop-color="#ff7700"/>
      <stop offset="80%" stop-color="#ffdd00"/>
      <stop offset="100%" stop-color="#ffffff"/>
    </linearGradient>
    <filter id="glow" x="-20%" y="-20%" width="140%" height="140%">
      <feGaussianBlur stdDeviation="4" result="blur"/>
      <feComposite in="SourceGraphic" in2="blur" operator="over"/>
    </filter>
  </defs>
  <path d="M60 10 C62 30 75 42 85 52 C98 65 102 82 92 98 C82 114 55 116 38 106 C22 96 18 78 28 62 C32 55 38 52 40 44 C42 34 35 25 60 10 Z" fill="url(#flameGrad)" filter="url(#glow)"/>
  <path d="M60 38 C62 48 70 56 75 64 C82 74 78 88 70 96 C62 104 48 102 42 94 C35 86 38 74 44 64 C48 57 48 48 60 38 Z" fill="#fff275" opacity="0.9"/>
  <path d="M60 60 C62 68 66 74 68 80 C70 86 66 94 60 97 C54 94 50 86 52 80 C54 74 58 68 60 60 Z" fill="#ffffff"/>
  <circle cx="45" cy="72" r="2" fill="#fff"/>
  <circle cx="75" cy="68" r="2.5" fill="#fff"/>
  <circle cx="32" cy="48" r="1.5" fill="#ffdd00"/>
  <circle cx="88" cy="42" r="1.5" fill="#ffaa00"/>
</svg>